<svg id="visual" viewBox="0 0 900 600" width="900" height="600" xmlns="http://www.w3.org/2000/svg" xmlns:xlink="http://www.w3.org/1999/xlink" version="1.1"><rect x="0" y="0" width="900" height="600" fill="#FFFFFF"></rect><g transform="translate(-157.4486975576403 -119.04516213661458)"><path d="M99.3 -301.9C99.3 -172.1 49.7 -86 193.7 -43C337.7 0 675.3 0 848.5 100C1021.7 200 1030.5 400 951.8 556.2C873.2 712.3 707.1 824.7 533.9 919.7C360.7 1014.7 180.3 1092.3 14.1 1068C-152.2 1043.6 -304.3 917.1 -379.7 765.6C-455 614.1 -453.5 437.6 -514.1 305.8C-574.7 174 -697.4 87 -683.4 8.1C-669.4 -70.8 -518.7 -141.7 -471.5 -296.5C-424.2 -451.4 -480.4 -690.3 -419 -784.7C-357.7 -879.2 -178.8 -829.1 -64.6 -717.2C49.7 -605.4 99.3 -431.7 99.3 -301.9" fill="none" stroke="#0B9AA1" stroke-width="9"></path></g></svg>